<svg width="107" height="107" viewBox="0 0 107 107" fill="none" xmlns="http://www.w3.org/2000/svg">
<circle cx="53.5" cy="53.5" r="53.5" fill="#F5F5F5"/>
<path d="M45.4922 17C42.51 17 40.0667 19.4433 40.0667 22.4255V38.1206C40.0667 41.1028 42.51 43.5461 45.4922 43.5461H61.1872C64.1695 43.5461 66.6128 41.1028 66.6128 38.1206V22.4255C66.6129 22.393 66.6119 22.3605 66.6099 22.3281C66.415 19.4029 64.0234 17 61.0411 17H45.4922ZM45.4922 19.9333H61.0411C62.4567 19.9333 63.578 21.0459 63.6794 22.5172V38.1206C63.6794 39.5384 62.605 40.6128 61.1872 40.6128H45.4922C44.0744 40.6128 43 39.5384 43 38.1206V22.4255C43 21.0077 44.0744 19.9333 45.4922 19.9333ZM51.8 24.3333V28.7333H47.4V31.6667H51.8V36.0667H54.7333V31.6667H59.1333V28.7333H54.7333V24.3333H51.8ZM26.4255 28.7333C23.4335 28.7333 21 31.1669 21 34.1589V83H47.4V65.4H59.1333V83H87V34.1589C87 31.1669 84.5665 28.7333 81.5745 28.7333H69.5461V38.1206C69.5461 42.7259 65.7926 46.4794 61.1872 46.4794H45.4922C40.8869 46.4794 37.1333 42.7259 37.1333 38.1206V28.7333H26.4255ZM28.3333 49.2667H38.6V58.0667H28.3333V49.2667ZM47.4 49.2667H59.1333V58.0667H47.4V49.2667ZM67.9333 49.2667H78.2V58.0667H67.9333V49.2667ZM28.3333 65.4H38.6V74.2H28.3333V65.4ZM67.9333 65.4H78.2V74.2H67.9333V65.4Z" fill="#D31A1A"/>
</svg>
